{"title":"The Wedding Ringer (2015) BRRIP1080P NO CINAVIA","uid":11879964,"size":2116888373,"categoryP":"video","categoryS":"hd___movies","magnet":"?xt=urn:btih:d7bed4c4c5e2845c303f3887264a6328db7e2e4f&amp;dn=+The+Wedding+Ringer+%282015%29+BRRIP1080P+NO+CINAVIA&amp;tr=udp%3A%2F%2Ftracker.openbittorrent.com%3A80&amp;tr=udp%3A%2F%2Fopen.demonii.com%3A1337&amp;tr=udp%3A%2F%2Ftracker.coppersurfer.tk%3A6969&amp;tr=udp%3A%2F%2Fexodus.desync.com%3A6969","seeders":2,"leechers":0,"uploader":"jmanwf","files":3,"time":1430612757,"description":"Two weeks shy of his wedding, a socially awkward guy enters into a charade by hiring the owner of a company that provides best men for grooms in need.\n\n   \nVideo\nID                                       : 1\nFormat                                   : AVC\nFormat/Info                              : Advanced Video Codec\nFormat profile                           : &lt;a class=&quot;__cf_email__&quot; href=&quot;/cdn-cgi/l/email-protection&quot; data-cfemail=&quot;d890b1bfb09894ecf6e9&quot;&gt;[email&amp;#160;protected]&lt;/a&gt;&lt;script cf-hash='f9e31' type=&quot;text/javascript&quot;&gt;\n/* &lt;![CDATA[ */!function(){try{var t=&quot;currentScript&quot;in document?document.currentScript:function(){for(var t=document.getElementsByTagName(&quot;script&quot;),e=t.length;e--;)if(t[e].getAttribute(&quot;cf-hash&quot;))return t[e]}();if(t&amp;&amp;t.previousSibling){var e,r,n,i,c=t.previousSibling,a=c.getAttribute(&quot;data-cfemail&quot;);if(a){for(e=&quot;&quot;,r=parseInt(a.substr(0,2),16),n=2;a.length-n;n+=2)i=parseInt(a.substr(n,2),16)^r,e+=String.fromCharCode(i);e=document.createTextNode(e),c.parentNode.replaceChild(e,c)}}}catch(u){}}();/* ]]&gt; */&lt;/script&gt;\nFormat settings, CABAC                   : Yes\nFormat settings, ReFrames                : 4 frames\nCodec ID                                 : avc1\nCodec ID/Info                            : Advanced Video Coding\nDuration                                 : 1h 41mn\nBit rate                                 : 2 500 Kbps\nWidth                                    : 1 920 pixels\nHeight                                   : 800 pixels\nDisplay aspect ratio                     : 2.40:1\nFrame rate mode                          : Constant\nFrame rate                               : 23.976 fps\nColor space                              : YUV\nChroma subsampling                       : 4:2:0\nBit depth                                : 8 bits\nScan type                                : Progressive\nBits/(Pixel*Frame)                       : 0.068\nStream size                              : 1.77 GiB (92%)\nWriting library                          : x264 core 144 r2525M 40bb568\n\n\nAudio\nID                                       : 2\nFormat                                   : AAC\nFormat/Info                              : Advanced Audio Codec\nFormat profile                           : LC\nCodec ID                                 : 40\nDuration                                 : 1h 41mn\nBit rate mode                            : Variable\nBit rate                                 : 223 Kbps\nMaximum bit rate                         : 896 Kbps\nChannel(s)                               : 6 channels\nChannel positions                        : Front: L C R, Side: L R, LFE\nSampling rate                            : 48.0 KHz\nCompression mode                         : Lossy\nDelay relative to video                  : -1s 0ms\nStream size                              : 162 MiB (8%)\n\nText\nID                                       : 3\nFormat                                   : Timed text\nMuxing mode                              : sbtl\nCodec ID                                 : tx3g\nDelay relative to video                  : -1s 0ms\nStream size                              : 2.00 Bytes (0%)\n\n\n\n &lt;a href=&quot;\nhttp://www.imdb.com/title/tt0884732/&quot; rel=&quot;nofollow&quot; target=&quot;_NEW&quot;&gt;\nhttp://www.imdb.com/title/tt0884732/&lt;/a&gt;\n\n\n\n &lt;a href=&quot;\nhttp://s24.postimg.org/69khtwjcl/image.jpg&quot; rel=&quot;nofollow&quot; target=&quot;_NEW&quot;&gt;\nhttp://s24.postimg.org/69khtwjcl/image.jpg&lt;/a&gt;","torrent":{"xt":"urn:btih:d7bed4c4c5e2845c303f3887264a6328db7e2e4f","amp;dn":"+The+Wedding+Ringer+%282015%29+BRRIP1080P+NO+CINAVIA","amp;tr":["udp%3A%2F%2Ftracker.openbittorrent.com%3A80","udp%3A%2F%2Fopen.demonii.com%3A1337","udp%3A%2F%2Ftracker.coppersurfer.tk%3A6969","udp%3A%2F%2Fexodus.desync.com%3A6969"],"infoHash":"d7bed4c4c5e2845c303f3887264a6328db7e2e4f","infoHashBuffer":{"type":"Buffer","data":[215,190,212,196,197,226,132,92,48,63,56,135,38,74,99,40,219,126,46,79]},"announce":[],"urlList":[]}}